HIERARCHY
ROOT Hips
{
	OFFSET 48.486000 -11.641015 94.183296
	CHANNELS 6 Xposition Yposition Zposition Xrotation Yrotation Zrotation
	JOINT spine
	{
		OFFSET 0.000000 -0.448574 7.800591
		CHANNELS 3 Xrotation Yrotation Zrotation
		JOINT spine1
		{
			OFFSET 0.000000 -0.000002 10.136398
			CHANNELS 3 Xrotation Yrotation Zrotation
			JOINT spine2
			{
				OFFSET 0.000000 -0.000002 9.712509
				CHANNELS 3 Xrotation Yrotation Zrotation
				JOINT Neck
				{
					OFFSET 0.000000 -1.188873 24.936096
					CHANNELS 3 Xrotation Yrotation Zrotation
					JOINT Head
					{
						OFFSET 0.000000 -0.000001 7.533844
						CHANNELS 3 Xrotation Yrotation Zrotation
						End Site
						{
							OFFSET 0.000000 6.014017 18.236099
						}
					}
				}
				JOINT RightShoulder
				{
					OFFSET -4.089649 0.569455 10.488800
					CHANNELS 3 Xrotation Yrotation Zrotation
					JOINT RightArm
					{
						OFFSET 0.000000 -0.000002 13.757004
						CHANNELS 3 Xrotation Yrotation Zrotation
						JOINT RightArmRoll
						{
							OFFSET 0.000000 -0.000001 6.944778
							CHANNELS 3 Xrotation Yrotation Zrotation
							JOINT RightForeArm
							{
								OFFSET 0.000000 -0.000004 20.227692
								CHANNELS 3 Xrotation Yrotation Zrotation
								JOINT RightForeArmRoll
								{
									OFFSET 0.000000 -0.000001 7.793121
									CHANNELS 3 Xrotation Yrotation Zrotation
									JOINT RightHand
									{
										OFFSET 0.000000 -0.000003 15.639099
										CHANNELS 3 Xrotation Yrotation Zrotation
										End Site
										{
											OFFSET 0.000000 0.000000 0.100006
										}
									}
								}
							}
						}
					}
				}
				JOINT LeftShoulder
				{
					OFFSET 4.089649 0.569455 10.488800
					CHANNELS 3 Xrotation Yrotation Zrotation
					JOINT LeftArm
					{
						OFFSET 0.000000 -0.000002 13.757004
						CHANNELS 3 Xrotation Yrotation Zrotation
						JOINT LeftArmRoll
						{
							OFFSET 0.000000 -0.000001 6.944778
							CHANNELS 3 Xrotation Yrotation Zrotation
							JOINT LeftForeArm
							{
								OFFSET 0.000000 -0.000004 20.227692
								CHANNELS 3 Xrotation Yrotation Zrotation
								JOINT LeftForeArmRoll
								{
									OFFSET 0.000000 -0.000001 7.793121
									CHANNELS 3 Xrotation Yrotation Zrotation
									JOINT LeftHand
									{
										OFFSET 0.000000 -0.000003 15.639099
										CHANNELS 3 Xrotation Yrotation Zrotation
										End Site
										{
											OFFSET 0.000000 0.000000 0.100006
										}
									}
								}
							}
						}
					}
				}
			}
		}
	}
	JOINT RightUpLeg
	{
		OFFSET -6.914162 1.063581 -1.267883
		CHANNELS 3 Xrotation Yrotation Zrotation
		JOINT RightUpLegRoll
		{
			OFFSET 0.000000 -0.000003 18.337799
			CHANNELS 3 Xrotation Yrotation Zrotation
			JOINT RightLeg
			{
				OFFSET 0.000000 0.000004 -22.708504
				CHANNELS 3 Xrotation Yrotation Zrotation
				JOINT RightLegRoll
				{
					OFFSET 0.000000 -0.000004 22.782799
					CHANNELS 3 Xrotation Yrotation Zrotation
					JOINT RightFoot
					{
						OFFSET 0.000000 -0.000003 18.962898
						CHANNELS 3 Xrotation Yrotation Zrotation
						JOINT RightToeBase
						{
							OFFSET 0.000000 -0.000003 15.852005
							CHANNELS 3 Xrotation Yrotation Zrotation
							End Site
							{
								OFFSET 0.006718 0.884892 7.677017
							}
						}
					}
				}
			}
		}
	}
	JOINT LeftUpLeg
	{
		OFFSET 6.914162 1.063581 -1.267883
		CHANNELS 3 Xrotation Yrotation Zrotation
		JOINT LeftUpLegRoll
		{
			OFFSET 0.000000 -0.000003 18.337898
			CHANNELS 3 Xrotation Yrotation Zrotation
			JOINT LeftLeg
			{
				OFFSET 0.000000 -0.000004 22.708405
				CHANNELS 3 Xrotation Yrotation Zrotation
				JOINT LeftLegRoll
				{
					OFFSET 0.000000 -0.000004 22.993393
					CHANNELS 3 Xrotation Yrotation Zrotation
					JOINT LeftFoot
					{
						OFFSET 0.000000 -0.000003 18.752197
						CHANNELS 3 Xrotation Yrotation Zrotation
						JOINT LeftToeBase
						{
							OFFSET 0.000000 -0.000003 15.852005
							CHANNELS 3 Xrotation Yrotation Zrotation
							End Site
							{
								OFFSET -0.030113 0.884892 7.677017
							}
						}
					}
				}
			}
		}
	}
}
MOTION
Frames: 9
Frame Time: 0.041667
48.566101 -15.074022 94.079796 -5.778297 -0.688240 -0.778903 -2.869198 0.196412 0.493866 -1.718098 0.373056 0.993233 -0.073106 0.384951 0.988727 29.115744 7.448821 -1.145718 -18.263029 -9.514855 -0.962388 -15.192110 -22.348750 -16.785408 58.911249 21.342536 100.116551 -0.000001 0.000004 -0.000000 71.264766 -2.071416 2.339762 -0.000007 0.000006 -3.004630 -5.000393 -7.998684 0.000237 -17.567190 23.408481 20.387561 -126.110345 187.682971 95.244112 -0.000001 -0.000001 -0.000001 58.392537 -4.272787 -0.143593 -0.000006 0.000010 3.006270 -5.000342 7.999547 -0.000075 2.096728 -178.906738 -0.053715 -179.999991 0.000005 -1.143000 167.540388 -1.227401 -0.722184 -0.000001 0.000003 0.366530 73.256682 6.784156 2.120913 25.456960 -7.355619 0.000012 10.338525 -178.796854 7.880496 -0.000004 -0.000004 -1.133591 -0.903762 4.304487 0.044916 0.000002 -0.000001 -0.097970 70.286390 -8.039310 1.035531 25.456957 7.355617 -0.000002 
48.568901 -15.079819 94.081795 -5.799648 -0.692534 -0.782775 -2.869538 0.198713 0.494306 -1.718298 0.377523 0.993987 -0.073308 0.389431 0.989423 29.199428 7.392710 -1.148284 -18.302796 -9.468309 -0.965669 -15.194152 -22.331980 -16.787860 58.995670 21.466771 99.944341 -0.000000 0.000011 -0.000001 71.529300 -2.114091 2.355950 -0.000008 0.000003 -3.004631 -5.000393 -7.998685 0.000234 -17.546254 23.397537 20.356028 -126.002852 187.739593 95.382519 0.000003 -0.000001 -0.000001 58.660007 -4.191126 -0.143326 -0.000009 0.000006 3.006270 -5.000343 7.999547 -0.000077 2.117806 -178.897749 -0.043351 -179.999991 0.000005 -1.143000 167.531276 -1.230292 -0.722017 -0.000000 0.000003 0.366599 73.265472 6.783151 2.121632 25.456957 -7.355619 0.000011 10.408845 -178.796143 7.880796 -0.000004 -0.000004 -1.130860 -0.815893 4.307146 0.040212 0.000002 -0.000001 -0.096282 70.248441 -8.042602 1.038511 25.456955 7.355617 -0.000002 
48.570900 -15.076824 94.075500 -5.820343 -0.697115 -0.786875 -2.869820 0.200844 0.494798 -1.718660 0.381601 0.995053 -0.073664 0.393523 0.990433 29.280317 7.345403 -1.152052 -18.338365 -9.430185 -0.969602 -15.195498 -22.309913 -16.788917 59.079401 21.581506 99.765397 0.000002 0.000001 -0.000002 71.781149 -2.153532 2.369459 -0.000007 0.000006 -3.004633 -5.000392 -7.998683 0.000236 -17.524693 23.392460 20.323607 -125.901492 187.793784 95.528262 0.000001 -0.000001 -0.000000 58.946971 -4.106702 -0.142867 -0.000010 0.000008 3.006273 -5.000342 7.999547 -0.000076 2.137036 -178.888774 -0.033107 -179.999991 0.000005 -1.143000 167.520375 -1.232188 -0.722682 -0.000001 0.000003 0.366683 73.274761 6.782286 2.122342 25.456957 -7.355618 0.000012 10.474365 -178.794422 7.881413 -0.000004 -0.000004 -1.128409 -0.736019 4.309867 0.035919 0.000002 -0.000001 -0.094810 70.214290 -8.045880 1.041763 25.456960 7.355615 -0.000001 
48.571400 -15.085121 94.076408 -5.840350 -0.702050 -0.791181 -2.870180 0.202922 0.495354 -1.719358 0.385515 0.996425 -0.074370 0.397455 0.991752 29.360552 7.303117 -1.156632 -18.372254 -9.396784 -0.974019 -15.196100 -22.284103 -16.788743 59.162477 21.688086 99.577075 -0.000000 0.000008 -0.000002 72.022432 -2.190049 2.379753 -0.000008 0.000005 -3.004632 -5.000392 -7.998683 0.000237 -17.501887 23.391887 20.289543 -125.805541 187.843576 95.681832 0.000003 -0.000004 -0.000002 59.255941 -4.018768 -0.142313 -0.000007 0.000008 3.006271 -5.000345 7.999551 -0.000076 2.154645 -178.878788 -0.022797 -179.999991 0.000005 -1.143997 167.508245 -1.234090 -0.722380 -0.000002 0.000003 0.366772 73.284371 6.781395 2.123430 25.456959 -7.355618 0.000011 10.536686 -178.792701 7.882312 -0.000004 -0.000004 -1.126130 -0.660703 4.312606 0.031869 0.000002 -0.000001 -0.093486 70.182209 -8.049182 1.045158 25.456959 7.355618 -0.000002 
48.577301 -15.099319 94.075699 -5.859749 -0.707280 -0.795685 -2.870591 0.204952 0.495965 -1.720330 0.389282 0.998063 -0.075340 0.401243 0.993342 29.439697 7.265387 -1.161927 -18.404665 -9.367727 -0.978906 -15.195994 -22.254855 -16.787227 59.244767 21.786855 99.382155 0.000000 0.000004 -0.000004 72.253641 -2.223847 2.387128 -0.000006 0.000004 -3.004626 -5.000393 -7.998685 0.000238 -17.478061 23.395105 20.253919 -125.714577 187.889297 95.842314 0.000000 0.000001 -0.000001 59.583271 -3.927959 -0.141778 -0.000009 0.000011 3.006271 -5.000341 7.999550 -0.000076 2.170806 -178.868803 -0.012471 -179.999991 0.000005 -1.143997 167.494940 -1.236948 -0.723314 -0.000001 0.000003 0.366863 73.294316 6.780563 2.124404 25.456955 -7.355619 0.000012 10.596110 -178.789996 7.883595 -0.000004 -0.000004 -1.124000 -0.589805 4.315364 0.028050 0.000002 -0.000001 -0.092295 70.152272 -8.052413 1.048719 25.456959 7.355618 -0.000002 
48.579102 -15.104119 94.074211 -5.878629 -0.712740 -0.800377 -2.871000 0.206936 0.496623 -1.721481 0.392919 0.999928 -0.076488 0.404901 0.995160 29.517728 7.231729 -1.167882 -18.435461 -9.342607 -0.984211 -15.195274 -22.222932 -16.784797 59.325848 21.878441 99.180303 0.000001 0.000007 -0.000004 72.475083 -2.255146 2.391844 -0.000009 0.000005 -3.004631 -5.000391 -7.998686 0.000237 -17.453374 23.401719 20.216993 -125.628188 187.931412 96.009196 0.000002 -0.000001 -0.000001 59.925204 -3.834918 -0.141392 -0.000010 0.000011 3.006271 -5.000340 7.999549 -0.000076 2.185718 -178.857833 -0.002107 -179.999991 0.000005 -1.143997 167.480733 -1.238840 -0.724056 0.000000 0.000003 0.366958 73.304397 6.779776 2.125677 25.456957 -7.355618 0.000012 10.652738 -178.786280 7.885222 -0.000004 -0.000004 -1.122021 -0.523184 4.318152 0.024458 0.000002 -0.000001 -0.091234 70.124282 -8.055621 1.052227 25.456957 7.355617 -0.000002 
48.573700 -15.102318 94.073593 -5.897077 -0.718374 -0.805247 -2.871401 0.208877 0.497319 -1.722723 0.396443 1.001981 -0.077730 0.408447 0.997167 29.594291 7.201654 -1.174385 -18.464827 -9.321023 -0.989883 -15.193981 -22.188732 -16.781464 59.405427 21.963283 98.973314 -0.000002 0.000005 -0.000003 72.687051 -2.284148 2.394138 -0.000008 0.000004 -3.004631 -5.000394 -7.998685 0.000239 -17.427982 23.411213 20.179073 -125.546008 187.970440 96.181809 0.000001 -0.000001 -0.000000 60.278072 -3.740275 -0.141230 -0.000005 0.000011 3.006269 -5.000339 7.999547 -0.000076 2.199548 -178.847848 0.008203 -179.999991 0.000005 -1.143997 167.465611 -1.240714 -0.723819 -0.000002 0.000003 0.367055 73.314704 6.779028 2.126944 25.456959 -7.355618 0.000012 10.706660 -178.783548 7.886767 -0.000004 -0.000004 -1.120189 -0.460699 4.320971 0.021081 0.000002 -0.000001 -0.090289 70.098245 -8.058838 1.056069 25.456959 7.355615 -0.000002 
48.577599 -15.110825 94.070496 -5.915172 -0.724119 -0.810286 -2.871740 0.210780 0.498046 -1.723972 0.399869 1.004180 -0.078981 0.411896 0.999324 29.669252 7.174697 -1.181380 -18.492940 -9.302553 -0.995900 -15.192386 -22.152800 -16.777386 59.482936 22.041823 98.763272 0.000001 0.000002 -0.000001 72.889942 -2.311045 2.394320 -0.000008 0.000005 -3.004629 -5.000392 -7.998683 0.000237 -17.402026 23.423097 20.140387 -125.467870 188.006845 96.359318 0.000001 -0.000002 -0.000001 60.638228 -3.644655 -0.141339 -0.000008 0.000013 3.006268 -5.000340 7.999548 -0.000076 2.212500 -178.836865 0.018522 -179.999991 0.000005 -1.143997 167.449792 -1.242598 -0.724597 -0.000001 0.000003 0.367155 73.325229 6.778265 2.128395 25.456957 -7.355617 0.000011 10.758192 -178.778849 7.888723 -0.000004 -0.000004 -1.118491 -0.402208 4.323845 0.017916 0.000002 -0.000001 -0.089450 70.074032 -8.062008 1.059951 25.456959 7.355615 -0.000001 
48.583504 -15.110817 94.070503 -5.933025 -0.729914 -0.815486 -2.871991 0.212645 0.498795 -1.725152 0.403215 1.006488 -0.080157 0.415267 1.001591 29.742281 7.150377 -1.188753 -18.519682 -9.286821 -1.002208 -15.190447 -22.115543 -16.772831 59.558218 22.114662 98.550682 0.000001 0.000003 -0.000005 73.084055 -2.336041 2.392658 -0.000008 0.000005 -3.004630 -5.000389 -7.998684 0.000234 -17.375673 23.436864 20.101052 -125.393066 188.041023 96.541029 0.000001 -0.000003 -0.000001 61.001888 -3.548683 -0.141701 -0.000004 0.000011 3.006271 -5.000342 7.999548 -0.000075 2.224742 -178.825882 0.028798 -179.999991 0.000005 -1.144995 167.433495 -1.244466 -0.724387 -0.000001 0.000003 0.367256 73.335789 6.777607 2.129660 25.456959 -7.355618 0.000012 10.807320 -178.775120 7.890474 -0.000004 -0.000004 -1.116940 -0.347573 4.326752 0.014953 0.000002 -0.000001 -0.088711 70.051656 -8.065164 1.063967 25.456959 7.355616 -0.000001 
